# xmcd
#
# Track frame offsets:
#	150
#	16800
#	32390
#	49315
#	64720
#	81370
#	96960
#	113885
#
# Disc length: 1723 seconds
#
# Revision: 1
# Processed by: cddbd v1.5.1PL0 Copyright (c) Steve Scherf et al.
# Submitted via: audiograbber 1.83.01
#
DISCID=5e06b908
DTITLE=The singing machine - Male Country Greats Vol. 1
DYEAR=1900
DGENRE=Instrumental
TTITLE0=We tell ourselves
TTITLE1=American Honky Tonk Bar Association
TTITLE2=Rock my world (little country girl)
TTITLE3=Achy Breaky Heart
TTITLE4=We tell ourselves
TTITLE5=American Honky Tonk Bar Association
TTITLE6=Rock my world (little country girl)
TTITLE7=Achy Breaky Heart
EXTD=
EXTT0=
EXTT1=
EXTT2=
EXTT3=
EXTT4=
EXTT5=
EXTT6=
EXTT7=
PLAYORDER=
